default_states
version=1
nRows=4
nColumns=205
inDegrees=yes

# SIMM Motion File Header:
name default_states
datacolumns 205
datarows 4
otherdata 1
range 0.59000552 0.59049176
endheader
time	pelvis_tilt	pelvis_list	pelvis_rotation	pelvis_tx	pelvis_ty	pelvis_tz	hip_flexion_r	hip_adduction_r	hip_rotation_r	knee_angle_r	knee_angle_r_beta	ankle_angle_r	subtalar_angle_r	mtp_angle_r	hip_flexion_l	hip_adduction_l	hip_rotation_l	knee_angle_l	knee_angle_l_beta	ankle_angle_l	subtalar_angle_l	mtp_angle_l	lumbar_extension	lumbar_bending	lumbar_rotation	arm_flex_r	arm_add_r	arm_rot_r	elbow_flex_r	pro_sup_r	wrist_flex_r	wrist_dev_r	arm_flex_l	arm_add_l	arm_rot_l	elbow_flex_l	pro_sup_l	wrist_flex_l	wrist_dev_l	pelvis_tilt_u	pelvis_list_u	pelvis_rotation_u	pelvis_tx_u	pelvis_ty_u	pelvis_tz_u	hip_flexion_r_u	hip_adduction_r_u	hip_rotation_r_u	knee_angle_r_u	knee_angle_r_beta_u	ankle_angle_r_u	subtalar_angle_r_u	mtp_angle_r_u	hip_flexion_l_u	hip_adduction_l_u	hip_rotation_l_u	knee_angle_l_u	knee_angle_l_beta_u	ankle_angle_l_u	subtalar_angle_l_u	mtp_angle_l_u	lumbar_extension_u	lumbar_bending_u	lumbar_rotation_u	arm_flex_r_u	arm_add_r_u	arm_rot_r_u	elbow_flex_r_u	pro_sup_r_u	wrist_flex_r_u	wrist_dev_r_u	arm_flex_l_u	arm_add_l_u	arm_rot_l_u	elbow_flex_l_u	pro_sup_l_u	wrist_flex_l_u	wrist_dev_l_u	add_brev_r.activation	add_long_r.activation	add_long_r.fiber_length	add_mag3_r.activation	add_mag4_r.activation	add_mag4_r.fiber_length	add_mag2_r.activation	add_mag1_r.activation	bifemlh_r.activation	bifemlh_r.fiber_length	bifemsh_r.activation	ext_dig_r.activation	ext_dig_r.fiber_length	ext_hal_r.activation	ext_hal_r.fiber_length	flex_dig_r.activation	flex_dig_r.fiber_length	flex_hal_r.activation	flex_hal_r.fiber_length	lat_gas_r.activation	lat_gas_r.fiber_length	med_gas_r.activation	med_gas_r.fiber_length	glut_max1_r.activation	glut_max2_r.activation	glut_max3_r.activation	glut_med1_r.activation	glut_med2_r.activation	glut_med3_r.activation	glut_min1_r.activation	glut_min2_r.activation	glut_min3_r.activation	glut_min3_r.fiber_length	grac_r.activation	iliacus_r.activation	per_brev_r.activation	per_brev_r.fiber_length	per_long_r.activation	per_long_r.fiber_length	peri_r.activation	peri_r.fiber_length	psoas_r.activation	rect_fem_r.activation	rect_fem_r.fiber_length	sar_r.activation	semimem_r.activation	semimem_r.fiber_length	semiten_r.activation	semiten_r.fiber_length	soleus_r.activation	soleus_r.fiber_length	tfl_r.activation	tfl_r.fiber_length	tib_ant_r.activation	tib_ant_r.fiber_length	tib_post_r.activation	tib_post_r.fiber_length	vas_int_r.activation	vas_int_r.fiber_length	vas_lat_r.activation	vas_lat_r.fiber_length	vas_med_r.activation	vas_med_r.fiber_length	add_brev_l.activation	add_long_l.activation	add_long_l.fiber_length	add_mag3_l.activation	add_mag4_l.activation	add_mag4_l.fiber_length	add_mag2_l.activation	add_mag1_l.activation	bifemlh_l.activation	bifemlh_l.fiber_length	bifemsh_l.activation	ext_dig_l.activation	ext_dig_l.fiber_length	ext_hal_l.activation	ext_hal_l.fiber_length	flex_dig_l.activation	flex_dig_l.fiber_length	flex_hal_l.activation	flex_hal_l.fiber_length	lat_gas_l.activation	lat_gas_l.fiber_length	med_gas_l.activation	med_gas_l.fiber_length	glut_max1_l.activation	glut_max2_l.activation	glut_max3_l.activation	glut_med1_l.activation	glut_med2_l.activation	glut_med3_l.activation	glut_min1_l.activation	glut_min2_l.activation	glut_min3_l.activation	glut_min3_l.fiber_length	grac_l.activation	iliacus_l.activation	per_brev_l.activation	per_brev_l.fiber_length	per_long_l.activation	per_long_l.fiber_length	peri_l.activation	peri_l.fiber_length	psoas_l.activation	rect_fem_l.activation	rect_fem_l.fiber_length	sar_l.activation	semimem_l.activation	semimem_l.fiber_length	semiten_l.activation	semiten_l.fiber_length	soleus_l.activation	soleus_l.fiber_length	tfl_l.activation	tfl_l.fiber_length	tib_ant_l.activation	tib_ant_l.fiber_length	tib_post_l.activation	tib_post_l.fiber_length	vas_int_l.activation	vas_int_l.fiber_length	vas_lat_l.activation	vas_lat_l.fiber_length	vas_med_l.activation	vas_med_l.fiber_length
      0.59000552	     -6.99036338	      3.46796919	     -5.52192429	      0.13404254	      0.97379549	     -0.21124454	     23.26591515	     -4.58945246	     -1.61828722	     73.06603115	     73.06603115	    -23.94733159	      0.00000000	     -0.00000000	     28.21500375	      3.61178866	     -3.34782332	     27.81127063	     27.81127063	     12.65918643	      0.00000000	     -0.00000000	     -8.67253407	     -7.01277225	      7.99887003	     -0.51348047	     -6.70450562	     -6.16492326	     37.16968326	     51.09085043	      0.00000000	      0.00000000	      7.50620407	    -12.41519814	      1.30830666	     40.09526369	     47.17744480	     -0.00000000	      0.00000000	     -1.51352548	     -4.99948612	     -9.91823921	      1.27904662	      0.18118591	      0.02665829	    207.07313342	     17.15488874	     16.06168413	    156.99385321	    156.99385321	    250.45204743	      0.00000000	      0.00000000	   -113.42704636	      8.66798590	     14.49316239	    -10.39095801	    -10.39095801	   1172.37811780	      0.00000000	     -0.00000000	     -6.52360725	      4.50474629	     -6.71540900	    -18.22094382	     -2.80211575	     10.84805948	    -25.15700335	     -2.90142016	      0.00000000	      0.00000000	     12.85391998	     -1.58228790	      5.59782406	     59.00719159	      2.31785252	     -0.00000000	      0.00000000	      0.06832025	      0.25723153	      0.10816904	      0.02000000	      0.02000000	      0.16333997	      0.02000000	      0.02000000	      0.02000000	      0.07636534	      0.47586397	      0.44440178	      0.08746938	      0.02000000	      0.10071227	      0.02000000	      0.04519930	      0.02000000	      0.04871556	      0.02000000	      0.03196632	      0.02000000	      0.02154771	      0.02000000	      0.02000000	      0.02000000	      0.03463914	      0.02000000	      0.02000000	      0.09891263	      0.08679643	      0.05968457	      0.03722969	      0.22544570	      0.52339999	      0.02000000	      0.05164988	      0.02000000	      0.05658811	      0.07820820	      0.02358025	      0.55783926	      0.02000000	      0.10704681	      0.47913402	      0.08506764	      0.03697035	      0.05777202	      0.19255586	      0.02000000	      0.03702812	      0.20221697	      0.09414273	      0.66355671	      0.08800640	      0.02000000	      0.03900558	      0.02000000	      0.14086584	      0.02000000	      0.13785986	      0.02000000	      0.13561061	      0.02000000	      0.02000000	      0.09679048	      0.02000000	      0.05103200	      0.16286150	      0.02000000	      0.02000000	      0.02000000	      0.11004412	      0.02000000	      0.02000000	      0.06988704	      0.02000000	      0.07905502	      0.02000000	      0.05099317	      0.02000000	      0.05839192	      0.02000000	      0.07890618	      0.02000000	      0.06873650	      0.56609484	      0.69133159	      0.02000000	      0.99999711	      0.98314910	      0.59773270	      0.87352112	      0.74609237	      0.43542042	      0.04295662	      0.02000000	      0.28912282	      0.02000000	      0.05614398	      0.02000000	      0.06256398	      0.28627626	      0.02676043	      0.02000000	      0.07590900	      0.07206268	      0.02000000	      0.28938691	      0.06939049	      0.05954747	      0.24055243	      0.02000000	      0.06094682	      0.93645953	      0.07431429	      0.02000000	      0.06700840	      0.02000000	      0.04531298	      0.17447550	      0.10854012	      0.54747636	      0.10233248	      0.32537703	      0.10556179
      0.59002120	     -6.99038709	      3.46789059	     -5.52207995	      0.13406260	      0.97379833	     -0.21124413	     23.26916299	     -4.58918307	     -1.61803522	     73.06849314	     73.06849314	    -23.94340219	      0.00000000	     -0.00000000	     28.21322442	      3.61192447	     -3.34759597	     27.81110759	     27.81110759	     12.67758830	      0.00000000	     -0.00000000	     -8.67263640	     -7.01270141	      7.99876481	     -0.51376630	     -6.70454959	     -6.16475310	     37.16928870	     51.09080490	      0.00000000	      0.00000000	      7.50640562	    -12.41522296	      1.30839447	     40.09618936	     47.17748116	     -0.00000000	      0.00000000	     -1.50964632	     -5.02254214	     -9.93025878	      1.27905574	      0.18117166	      0.02669618	    207.05007949	     17.19409057	     16.06955129	    156.92770197	    156.92770197	    250.57403508	      0.00000000	      0.00000000	   -113.44948530	      8.64939125	     14.49583413	    -10.39758810	    -10.39758810	   1173.99247965	      0.00000000	     -0.00000000	     -6.52471926	      4.52830171	     -6.70100599	    -18.22483991	     -2.80406019	     10.84745907	    -25.15220278	     -2.90346928	      0.00000000	      0.00000000	     12.84532679	     -1.58333592	      5.59843581	     59.02212563	      2.31759645	     -0.00000000	      0.00000000	      0.06831187	      0.25718169	      0.10816668	      0.02000000	      0.02000000	      0.16334269	      0.02000000	      0.02000000	      0.02000000	      0.07636682	      0.47585421	      0.44420770	      0.08746555	      0.02000000	      0.10071026	      0.02000000	      0.04520012	      0.02000000	      0.04871681	      0.02000000	      0.03196789	      0.02000000	      0.02154897	      0.02000000	      0.02000000	      0.02000000	      0.03466751	      0.02000000	      0.02000000	      0.09889801	      0.08677993	      0.05967540	      0.03723053	      0.22542693	      0.52330075	      0.02000000	      0.05165047	      0.02000000	      0.05658886	      0.07819411	      0.02358121	      0.55773278	      0.02000000	      0.10704623	      0.47906698	      0.08521199	      0.03697046	      0.05784491	      0.19255613	      0.02000000	      0.03703078	      0.20215958	      0.09414262	      0.66330971	      0.08800317	      0.02000000	      0.03900645	      0.02000000	      0.14086708	      0.02000000	      0.13786097	      0.02000000	      0.13561170	      0.02000000	      0.02000000	      0.09679164	      0.02000000	      0.05102499	      0.16285988	      0.02000000	      0.02000000	      0.02000000	      0.11004240	      0.02000000	      0.02000000	      0.06988198	      0.02000000	      0.07904953	      0.02000000	      0.05099468	      0.02000000	      0.05839537	      0.02000000	      0.07891698	      0.02000000	      0.06874680	      0.56603775	      0.69127453	      0.02000000	      0.99999711	      0.98316248	      0.59757986	      0.87363066	      0.74619164	      0.43535324	      0.04295647	      0.02000000	      0.28902431	      0.02000000	      0.05614569	      0.02000000	      0.06256636	      0.28617924	      0.02676082	      0.02000000	      0.07589554	      0.07206434	      0.02000000	      0.28930762	      0.06939132	      0.05953833	      0.24055087	      0.02000000	      0.06095598	      0.93651183	      0.07431515	      0.02000000	      0.06700338	      0.02000000	      0.04531492	      0.17445408	      0.10854005	      0.54731518	      0.10233250	      0.32526029	      0.10556153
      0.59009963	     -6.99050473	      3.46749218	     -5.52286110	      0.13416292	      0.97381254	     -0.21124203	     23.28539679	     -4.58782692	     -1.61677340	     73.08078754	     73.08078754	    -23.92372647	      0.00000000	     -0.00000000	     28.20432252	      3.61259919	     -3.34645858	     27.81029075	     27.81029075	     12.76997724	      0.00000000	     -0.00000000	     -8.67314833	     -7.01234166	      7.99824209	     -0.51519639	     -6.70476988	     -6.16390249	     37.16731703	     51.09057679	      0.00000000	      0.00000000	      7.50741136	    -12.41534735	      1.30883366	     40.10082121	     47.17766287	     -0.00000000	      0.00000000	     -1.49041667	     -5.13737663	     -9.99021865	      1.27910127	      0.18110022	      0.02688505	    206.93500790	     17.38950198	     16.10876996	    156.59714440	    156.59714440	    251.18522330	      0.00000000	      0.00000000	   -113.56179807	      8.55699637	     14.50914784	    -10.43396062	    -10.43396062	   1182.05505916	      0.00000000	     -0.00000000	     -6.53008811	      4.64563861	     -6.62916900	    -18.24428856	     -2.81373628	     10.84444710	    -25.12831867	     -2.91368798	      0.00000000	      0.00000000	     12.80238169	     -1.58860287	      5.60150823	     59.09673674	      2.31631653	     -0.00000000	      0.00000000	      0.06827000	      0.25693280	      0.10815486	      0.02000000	      0.02000000	      0.16335633	      0.02000000	      0.02000000	      0.02000000	      0.07637420	      0.47580546	      0.44323935	      0.08744645	      0.02000000	      0.10070021	      0.02000000	      0.04520422	      0.02000000	      0.04872305	      0.02000000	      0.03197578	      0.02000000	      0.02155533	      0.02000000	      0.02000000	      0.02000000	      0.03480812	      0.02000000	      0.02000000	      0.09882498	      0.08669748	      0.05962957	      0.03723474	      0.22533319	      0.52280549	      0.02000000	      0.05165343	      0.02000000	      0.05659258	      0.07812372	      0.02358602	      0.55720144	      0.02000000	      0.10704335	      0.47873232	      0.08592765	      0.03697097	      0.05820628	      0.19255737	      0.02000000	      0.03704412	      0.20187300	      0.09414206	      0.66207778	      0.08798707	      0.02000000	      0.03901081	      0.02000000	      0.14087325	      0.02000000	      0.13786651	      0.02000000	      0.13561714	      0.02000000	      0.02000000	      0.09679745	      0.02000000	      0.05098994	      0.16285178	      0.02000000	      0.02000000	      0.02000000	      0.11003380	      0.02000000	      0.02000000	      0.06985673	      0.02000000	      0.07902209	      0.02000000	      0.05100228	      0.02000000	      0.05841263	      0.02000000	      0.07897117	      0.02000000	      0.06879844	      0.56575278	      0.69098979	      0.02000000	      0.99999712	      0.98322921	      0.59681729	      0.87417677	      0.74668642	      0.43501788	      0.04295572	      0.02000000	      0.28853254	      0.02000000	      0.05615423	      0.02000000	      0.06257828	      0.28569489	      0.02676279	      0.02000000	      0.07582831	      0.07207268	      0.02000000	      0.28891173	      0.06939546	      0.05949267	      0.24054309	      0.02000000	      0.06100191	      0.93677267	      0.07431947	      0.02000000	      0.06697831	      0.02000000	      0.04532470	      0.17434708	      0.10853969	      0.54651094	      0.10233263	      0.32467759	      0.10556027
      0.59049176	     -6.99107090	      3.46536661	     -5.52683688	      0.13466454	      0.97388348	     -0.21123130	     23.36643109	     -4.58081842	     -1.61041859	     73.14187137	     73.14187137	    -23.82462464	      0.00000000	     -0.00000000	     28.15968049	      3.61586614	     -3.34075612	     27.80615219	     27.80615219	     13.24137288	      0.00000000	     -0.00000000	     -8.67571361	     -7.01040644	      7.99571233	     -0.52236956	     -6.70588257	     -6.15965299	     37.15748633	     51.08942431	      0.00000000	      0.00000000	      7.51238960	    -12.41597555	      1.31103326	     40.12406804	     47.17856992	     -0.00000000	      0.00000000	     -1.39834640	     -5.70061257	    -10.28628386	      1.27932648	      0.18073874	      0.02781554	    206.36445240	     18.35172127	     16.30164625	    154.94915210	    154.94915210	    254.27020755	      0.00000000	      0.00000000	   -114.12605503	      8.10932196	     14.57485263	    -10.69617287	    -10.69617287	   1222.13053460	      0.00000000	     -0.00000000	     -6.55231475	      5.22155321	     -6.27470039	    -18.34069582	     -2.86096679	     10.82914205	    -25.01187680	     -2.96410903	      0.00000000	      0.00000000	     12.58821947	     -1.61560211	      5.61721410	     59.46829923	      2.30993145	     -0.00000000	      0.00000000	      0.06806145	      0.25569639	      0.10809549	      0.02000000	      0.02000000	      0.16342423	      0.02000000	      0.02000000	      0.02000000	      0.07641118	      0.47556351	      0.43844843	      0.08735216	      0.02000000	      0.10064954	      0.02000000	      0.04522489	      0.02000000	      0.04875444	      0.02000000	      0.03201592	      0.02000000	      0.02158781	      0.02000000	      0.02000000	      0.02000000	      0.03548127	      0.02000000	      0.02000000	      0.09846141	      0.08628698	      0.05940129	      0.03725589	      0.22486703	      0.52035205	      0.02000000	      0.05166833	      0.02000000	      0.05661131	      0.07777326	      0.02361020	      0.55457017	      0.02000000	      0.10702885	      0.47707297	      0.08935839	      0.03697271	      0.05993796	      0.19256162	      0.02000000	      0.03711131	      0.20044913	      0.09413918	      0.65599429	      0.08790730	      0.02000000	      0.03903274	      0.02000000	      0.14090391	      0.02000000	      0.13789402	      0.02000000	      0.13564415	      0.02000000	      0.02000000	      0.09682672	      0.02000000	      0.05081533	      0.16281128	      0.02000000	      0.02000000	      0.02000000	      0.10999063	      0.02000000	      0.02000000	      0.06973048	      0.02000000	      0.07888490	      0.02000000	      0.05104089	      0.02000000	      0.05850015	      0.02000000	      0.07924651	      0.02000000	      0.06906061	      0.56434051	      0.68958005	      0.02000000	      0.99999718	      0.98355889	      0.59304476	      0.87686856	      0.74912144	      0.43335458	      0.04295197	      0.02000000	      0.28609290	      0.02000000	      0.05619770	      0.02000000	      0.06263906	      0.28329195	      0.02677250	      0.02000000	      0.07549355	      0.07211463	      0.02000000	      0.28694683	      0.06941545	      0.05926527	      0.24050401	      0.02000000	      0.06123494	      0.93806012	      0.07434095	      0.02000000	      0.06685297	      0.02000000	      0.04537437	      0.17381480	      0.10853805	      0.54253165	      0.10233359	      0.32178858	      0.10555443
